# xmcd
#
# Track frame offsets: 
#        150
#        15999
#        32557
#        46186
#        56591
#        72797
#        88928
#        102465
#        117078
#        131891
#        154114
#        169118
#        186314
#        198753
#        211185
#        224530
#        237293
#        248629
#        261839
#        275361
#
# Disc length: 3845 seconds
#
# Revision: 0
# Processed by: cddbd v1.5.2PL0 Copyright (c) Steve Scherf et al.
# Submitted via: ExactAudioCopyFreeDBPlugin 1.0
#
DISCID=1a0f0314
DTITLE=Various Artist - Classic Stax - 3
DYEAR=1900
DGENRE=Soul
TTITLE0=The Staple Singers - Respect Yourself
TTITLE1=24 Carat Black - Ghetto: Misfortune's Wealth
TTITLE2=Johnnie Taylor - Jody's Got Your Girl and Gone
TTITLE3=Otis Redding - Hard To Handle
TTITLE4=Isaac Hayes - Never Can Say Goodbye
TTITLE5=The Soul Children - Hearsay
TTITLE6=Carla Thomas - Gee Whiz (Look At His Eyes)
TTITLE7=Sam and Dave - When Something Is Wrong With My Baby
TTITLE8=Rufus Thomas - (Do The) Push and Pull
TTITLE9=Booker T and The MGs - Time Is Tight
TTITLE10=The Emotions - Show Me How
TTITLE11=Mel and Tim - Starting All Over Again
TTITLE12=Jean Knight - Mr. Big Stuff
TTITLE13=Eddie Floyd - I've Never Found A Girl (To Love Me Like You Do
TTITLE13=)
TTITLE14=Mable John - Your Good Thing Is About To End
TTITLE15=The Mad Lads - Don't Have To Shop Around
TTITLE16=Sam and Dave - Soothe Me
TTITLE17=Judy Clay - You Can't Run Away From Your Heart
TTITLE18=Wendy Rene - After Laughter (Comes Tears)
TTITLE19=William Bell - A Tribute To A King
EXTD=
EXTT0=
EXTT1=
EXTT2=
EXTT3=
EXTT4=
EXTT5=
EXTT6=
EXTT7=
EXTT8=
EXTT9=
EXTT10=
EXTT11=
EXTT12=
EXTT13=
EXTT14=
EXTT15=
EXTT16=
EXTT17=
EXTT18=
EXTT19=
PLAYORDER=
